<svg xmlns="http://www.w3.org/2000/svg" xmlns:xlink="http://www.w3.org/1999/xlink" viewBox="0 0 852.23 759.26"><defs><style>.a{fill:#8ac5ff;}.b{fill:#265380;}.c{fill:url(#a);}</style><radialGradient id="a" cx="-657.97" cy="533.68" r="286.41" gradientTransform="translate(-389.69 989.49) rotate(180)" gradientUnits="userSpaceOnUse"><stop offset="0" stop-color="#0376f2"/><stop offset="0.82" stop-color="#094783"/><stop offset="1" stop-color="#0a3d6b"/></radialGradient></defs><path class="a" d="M21.37,191.16h0c.63-.82,1.28-1.63,1.94-2.43l0,0c.66-.79,1.32-1.58,2-2.35l.06-.06c.67-.76,1.35-1.52,2.05-2.26l.08-.09c.68-.73,1.38-1.46,2.09-2.17l.12-.12q1-1,2.13-2.07l.15-.15q1.06-1,2.16-2l.21-.18c.72-.63,1.44-1.26,2.18-1.87l.26-.21c.72-.6,1.45-1.2,2.19-1.78l.32-.24c.73-.56,1.46-1.12,2.2-1.66l.39-.28c.72-.53,1.46-1.05,2.2-1.56l.45-.3c.73-.49,1.46-1,2.2-1.45l.53-.33c.72-.45,1.45-.9,2.19-1.34l.61-.35c.72-.42,1.44-.84,2.17-1.24l.69-.37c.71-.38,1.43-.77,2.15-1.14l.77-.38c.71-.35,1.42-.7,2.14-1,.28-.14.57-.26.86-.39.7-.32,1.39-.64,2.1-.94.31-.14.63-.26,1-.39l2.07-.85,1-.39c.67-.25,1.35-.51,2-.75l1.14-.38c.67-.22,1.33-.45,2-.66l1.23-.37c.65-.19,1.3-.39,2-.57.44-.13.9-.24,1.34-.36l1.9-.49,1.45-.32c.62-.14,1.23-.29,1.85-.41l1.55-.3,1.8-.34,1.68-.25c.57-.09,1.14-.19,1.72-.27l1.82-.21,1.63-.2,2-.17c.51,0,1-.09,1.51-.12.75-.05,1.52-.08,2.28-.12.42,0,.84-.05,1.26-.06,1.19,0,2.38-.06,3.59-.06H496.55c30.77,0,50,33.3,34.61,60L422,401.32l88,152.35L742.72,150.56a99.4,99.4,0,0,0,.56-99.38C726.51,21.39,694.87,0,655.8,0H191.73a109.58,109.58,0,0,0-94.9,54.79L14.31,201.52h0A103.7,103.7,0,0,1,21.37,191.16Z"/><path class="b" d="M424.17,709.72a103.25,103.25,0,0,0,5.73,8.85,99.12,99.12,0,0,0,6.41,8c.75.83,1.51,1.66,2.28,2.46a98.4,98.4,0,0,0,7.21,6.83c.83.71,1.67,1.4,2.52,2.08a97.45,97.45,0,0,0,21.95,13.16c1,.42,1.94.82,2.92,1.21A99.9,99.9,0,0,0,493.94,758c2.22.35,4.44.64,6.67.85q3.12.28,6.25.39c1,0,2.08,0,3.13,0h0c33.37,0,66.75-16.51,85.82-49.54L845,278.09a54,54,0,0,0,0-53.95L744.89,50.74a.81.81,0,0,0-1.44.07h0a.79.79,0,0,0,0,.73,99.4,99.4,0,0,1-.76,99L544.6,493.72c-15.38,26.64-53.84,26.64-69.23,0L366.73,305.54a1.7,1.7,0,0,0-1.47-.85h-172a1.7,1.7,0,0,0-1.47,2.54Z"/><path class="c" d="M13.63,303.33,257.17,725.16a68.21,68.21,0,0,0,59.07,34.1H510c-1.05,0-2.09,0-3.13,0q-3.14-.11-6.25-.39c-2.23-.21-4.45-.5-6.67-.85a99.9,99.9,0,0,1-20.75-5.68c-1-.39-1.95-.79-2.92-1.21a97.45,97.45,0,0,1-21.95-13.16c-.85-.68-1.69-1.37-2.52-2.08a98.4,98.4,0,0,1-7.21-6.83c-.77-.8-1.53-1.63-2.28-2.46a99.12,99.12,0,0,1-6.41-8,103.25,103.25,0,0,1-5.73-8.85L224.94,364.64c-15.38-26.64,3.85-59.95,34.61-59.95H477.82l53.34-92.39c15.39-26.65-3.84-60-34.61-60H100.8c-1.21,0-2.4,0-3.59.06-.42,0-.84,0-1.26.06-.76,0-1.53.07-2.28.12-.51,0-1,.08-1.51.12l-2,.17-1.63.2-1.82.21c-.58.08-1.15.18-1.72.27l-1.68.25-1.8.34-1.55.3c-.62.12-1.23.27-1.85.41l-1.45.32-1.9.49c-.44.12-.9.23-1.34.36-.66.18-1.31.38-2,.57l-1.23.37c-.67.21-1.33.44-2,.66L67.1,158c-.68.24-1.36.5-2,.75l-1,.39L62,160c-.32.13-.64.25-1,.39-.71.3-1.4.62-2.1.94-.29.13-.58.25-.86.39-.72.33-1.43.68-2.14,1l-.77.38c-.72.37-1.44.76-2.15,1.14l-.69.37c-.73.4-1.45.82-2.17,1.24l-.61.35c-.74.44-1.47.89-2.19,1.34l-.53.33c-.74.47-1.47,1-2.2,1.45l-.45.3c-.74.51-1.48,1-2.2,1.56l-.39.28c-.74.54-1.47,1.1-2.2,1.66l-.32.24c-.74.58-1.47,1.18-2.19,1.78l-.26.21c-.74.61-1.46,1.24-2.18,1.87l-.21.18q-1.09,1-2.16,2l-.15.15q-1.08,1-2.13,2.07l-.12.12c-.71.71-1.41,1.44-2.09,2.17l-.08.09c-.7.74-1.38,1.5-2.05,2.26l-.06.06c-.68.77-1.34,1.56-2,2.35l0,0c-.66.8-1.31,1.61-1.94,2.43h0a103.7,103.7,0,0,0-7,10.36C-3.24,231-6,269.33,13.63,303.33Z"/></svg>